<svg width="24" height="20" viewBox="0 0 24 20" fill="none" xmlns="http://www.w3.org/2000/svg">
<path d="M7 19.981C5.63405 19.8761 4.33616 19.3423 3.29165 18.4559C2.24715 17.5694 1.50944 16.3756 1.18385 15.0448C0.858269 13.7141 0.961464 12.3146 1.4787 11.046C1.99594 9.7774 2.90077 8.70468 4.064 7.98099C4.31151 6.05108 5.25379 4.2775 6.71451 2.99215C8.17523 1.7068 10.0543 0.997787 12 0.997787C13.9457 0.997787 15.8248 1.7068 17.2855 2.99215C18.7462 4.2775 19.6885 6.05108 19.936 7.98099C21.0992 8.70468 22.0041 9.7774 22.5213 11.046C23.0385 12.3146 23.1417 13.7141 22.8161 15.0448C22.4906 16.3756 21.7528 17.5694 20.7083 18.4559C19.6638 19.3423 18.3659 19.8761 17 19.981V20H7V19.981ZM13 11V6.99999H11V11H8L12 16L16 11H13Z" fill="#3B495B"/>
</svg>
