<svg width="105" height="66" viewBox="0 0 105 66" fill="none" xmlns="http://www.w3.org/2000/svg">
<path d="M62.0596 42.8461C62.2899 41.7111 62.5201 40.5761 62.7504 39.4411C62.7504 39.3276 62.7503 39.2141 62.8655 39.1006C64.2469 38.9871 65.5133 38.7601 66.8947 38.4196C67.0098 38.4196 67.125 38.5331 67.2401 38.6466C67.9308 39.5546 68.5064 40.5761 69.082 41.4841C69.7728 42.5056 70.6937 42.6191 71.6147 42.0516C73.2264 41.0301 74.723 40.0086 76.3347 39.1006C77.3708 38.4196 77.4859 37.5116 76.9103 36.6036C76.3347 35.6956 75.644 34.6741 75.0684 33.7661C74.9532 33.5391 74.9532 33.4256 75.0684 33.3121C75.8742 32.4041 76.565 31.3826 77.0254 30.3611C77.1406 30.1341 77.2557 30.1341 77.4859 30.1341C78.6371 30.3611 79.7884 30.5881 80.9396 30.8151C82.0908 31.0421 82.8966 30.5881 83.1269 29.4531C83.4723 27.6371 83.9327 25.8212 84.2781 24.0052C84.5083 22.8702 84.0479 22.0757 82.8966 21.8487C81.8605 21.6217 80.8245 21.3947 79.7884 21.1677C79.5581 21.1677 79.3279 21.0542 79.0976 21.0542L79.2128 20.9407C78.9825 19.6922 78.7523 18.5572 78.4069 17.3087C78.4069 17.0817 78.4069 16.9682 78.522 16.8547C79.5581 16.1737 80.5942 15.4927 81.7454 14.8117C82.6664 14.2442 82.8966 13.3362 82.321 12.4282C81.2849 10.8392 80.2488 9.25021 79.2128 7.66122C78.6371 6.75322 77.7162 6.52623 76.7952 7.20722C75.644 7.88822 74.6079 8.56922 73.4567 9.36371C73.3415 9.47721 73.2264 9.47721 72.9962 9.36371C72.0752 8.68272 71.1542 8.11522 70.1181 7.54772C70.003 7.43422 69.8879 7.32072 70.003 7.20722C70.2333 5.95873 70.5786 4.71023 70.8089 3.34824C71.0391 2.21324 70.5786 1.41874 69.4274 1.19175C67.5855 0.851247 65.7435 0.397249 63.9016 0.0567498C62.7504 -0.170249 61.9445 0.283749 61.7143 1.41874C61.484 2.66724 61.1386 3.91573 60.9084 5.16423C60.9084 5.39123 60.7933 5.50473 60.4479 5.50473C59.4118 5.61823 58.3757 5.84523 57.3396 6.07223C57.1094 6.07223 56.9943 6.07223 56.764 5.84523C56.0733 4.71023 55.2674 3.57524 54.5767 2.55374C54.0011 1.75924 53.0801 1.53224 52.2743 1.98624C50.5475 3.00774 48.9357 4.14273 47.2089 5.27773C46.5182 5.73173 46.2879 6.75322 46.7484 7.43422C46.8636 7.54772 46.9787 7.77472 47.2089 8.00172C47.8997 9.02322 48.4753 10.0447 49.166 10.9527C48.3601 11.9742 47.6694 12.9957 46.8636 14.1307C46.8636 14.1307 46.7484 14.1307 46.6333 14.1307C45.367 13.9037 44.1006 13.5632 42.8343 13.3362C41.7982 13.1092 40.9924 13.6767 40.7621 14.6982C40.3016 16.5142 39.9563 18.4437 39.6109 20.2597C39.3807 21.2812 39.9563 22.0757 40.9924 22.3027C42.2587 22.5297 43.525 22.8702 44.7914 23.0972C45.0216 23.0972 45.1367 23.2107 45.1367 23.4377C45.2519 24.5727 45.4821 25.5942 45.7123 26.7292C45.7123 26.9562 45.7123 27.0696 45.5972 27.1831C44.5611 27.8641 43.4099 28.5451 42.3738 29.2261C41.4528 29.7936 41.2226 30.8151 41.7982 31.7231C42.8343 33.3121 43.8704 34.9011 44.9065 36.3766C45.4821 37.2846 46.5182 37.5116 47.4392 36.9441C48.4753 36.2631 49.5114 35.5821 50.5475 35.0146C50.7777 34.9011 50.7777 34.9011 51.0079 35.0146C51.8138 35.5821 52.6196 36.2631 53.4255 36.8306C53.6557 36.9441 53.886 37.0576 54.2313 37.2846C54.2313 37.3981 54.1162 37.5116 54.1162 37.6251C53.886 38.7601 53.6557 40.0086 53.3104 41.1436C53.0801 42.0516 53.6557 42.8461 54.5767 43.0731C56.5338 43.5271 58.4908 43.8676 60.4479 44.3216C61.0235 44.3216 61.9445 43.7541 62.0596 42.8461ZM54.4616 41.0301C54.807 39.5546 55.1523 38.0791 55.3826 36.6036C55.3826 36.3766 55.3826 36.2631 55.1523 36.1496C53.5406 35.3551 52.044 34.4471 50.8928 33.1986C50.6626 32.9716 50.5475 33.0851 50.4323 33.1986C49.166 33.9931 47.7845 34.9011 46.5182 35.6956C46.1728 35.9226 46.0577 35.9226 45.8275 35.5821C44.7914 33.9931 43.7553 32.5176 42.8343 30.9286C42.6041 30.5881 42.6041 30.4746 42.9494 30.2476C44.3309 29.3396 45.5972 28.5451 46.9787 27.7506C47.2089 27.6371 47.2089 27.5236 47.2089 27.2966C46.6333 25.7077 46.4031 24.0052 46.4031 22.3027C46.4031 22.0757 46.288 21.9622 46.0577 21.9622C44.446 21.6217 42.9494 21.2812 41.3377 20.9407C40.8772 20.8272 40.8772 20.8272 40.9924 20.3732C41.3377 18.5572 41.7982 16.8547 42.1436 15.0387C42.2587 14.5847 42.2587 14.5847 42.7192 14.6982C44.3309 15.0387 45.9426 15.3792 47.4392 15.7197C47.5543 15.7197 47.6694 15.8332 47.7845 15.8332C48.245 15.0387 48.5904 14.3577 49.0509 13.6767C49.6265 12.8822 50.2021 12.2012 50.8928 11.5202C51.0079 11.4067 51.0079 11.2932 50.8928 11.0662C49.9718 9.70421 49.0509 8.34222 48.1299 6.86672C47.8997 6.52623 47.8997 6.41273 48.245 6.18573C49.7416 5.16423 51.3533 4.25623 52.8499 3.23474C53.1953 3.00774 53.3104 3.00774 53.5406 3.34824C54.4616 4.71023 55.3826 6.18573 56.3035 7.54772C56.3035 7.66122 56.4187 7.77472 56.5338 7.66122C58.2606 7.09372 59.9874 6.75322 61.7143 6.75322C61.7143 6.75322 61.7143 6.75322 61.9445 6.75322C61.9445 6.63972 61.9445 6.52623 61.9445 6.41273C62.2899 4.82373 62.6352 3.23474 62.9806 1.64574C63.0957 1.30525 63.2108 1.19175 63.5562 1.30525C65.3981 1.64574 67.2401 2.09974 68.9669 2.44024C69.3123 2.55374 69.4274 2.55374 69.3123 3.00774C68.9669 4.59673 68.6216 6.07223 68.2762 7.66122C68.2762 7.77472 68.1611 7.88822 68.1611 8.00172C68.9669 8.45572 69.7728 8.79622 70.4635 9.36371C71.1542 9.81771 71.845 10.3852 72.5357 10.9527C72.7659 11.0662 72.8811 11.1797 73.1113 10.9527C74.6079 10.0447 75.9893 9.25021 77.2557 8.34222C77.601 8.11522 77.7162 8.11522 77.9464 8.45572C78.9825 9.93121 79.9035 11.5202 80.9396 12.9957C81.1698 13.3362 81.1698 13.4497 80.8244 13.6767C79.5581 14.4712 78.1767 15.3792 76.9103 16.1737C76.7952 16.2872 76.6801 16.2872 76.5649 16.4007C76.6801 16.8547 76.7952 17.1952 77.0254 17.6492C77.4859 18.8977 77.7162 20.2597 77.7162 21.6217C77.7162 21.8487 77.8313 21.9622 78.0615 22.0757C79.5581 22.4162 81.0547 22.7567 82.5513 22.9837C83.0118 23.0972 83.0118 23.0972 82.8966 23.5512C82.5513 25.3672 82.0908 27.0696 81.7454 28.8856C81.6303 29.3396 81.6303 29.3396 81.1698 29.2261C79.6732 28.8856 78.1767 28.5451 76.6801 28.3181C76.4498 28.3181 76.3347 28.3181 76.2196 28.5451C75.5289 30.1341 74.4928 31.6096 73.2264 32.8581C73.1113 32.9716 73.1113 33.0851 73.2264 33.3121C74.0323 34.5606 74.8381 35.8091 75.7591 37.0576C75.9893 37.3981 75.9893 37.5116 75.644 37.6251C74.0323 38.6466 72.5357 39.6681 70.924 40.5761C70.5786 40.8031 70.4635 40.8031 70.3484 40.4626C69.5425 39.2141 68.7367 37.9656 67.9308 36.7171C67.8157 36.4901 67.7006 36.4901 67.4703 36.4901C65.7435 37.1711 63.9016 37.3981 61.9445 37.3981C61.9445 37.5116 61.8294 37.6251 61.8294 37.7386C61.484 39.2141 61.2538 40.5761 60.9084 42.0516C60.7933 42.3921 60.7933 42.5056 60.3328 42.3921C58.4908 42.0516 56.6489 41.5976 54.9221 41.2571C54.3465 41.5976 54.3465 41.4841 54.4616 41.0301ZM67.3552 30.4746C72.0752 27.5236 73.4567 21.2812 70.4635 16.5142C67.5855 11.8607 61.2538 10.4987 56.4187 13.4497C51.6987 16.4007 50.2021 22.6432 53.3104 27.4101C56.1884 32.0636 62.6352 33.5391 67.3552 30.4746ZM54.4616 26.7292C51.8138 22.6432 53.0801 17.3087 57.2245 14.6982C61.3689 12.0877 66.7796 13.3362 69.4274 17.3087C72.0752 21.3947 70.8089 26.8426 66.7796 29.3396C62.5201 31.9501 56.9943 30.7016 54.4616 26.7292ZM104.079 25.8212H91.5308C91.3005 25.8212 90.9552 25.9347 90.84 26.2752L88.3074 31.1556C87.962 31.1556 87.6166 31.0421 87.3864 31.0421C83.3571 31.0421 80.1337 34.2201 80.1337 38.1926C80.1337 39.6681 80.5942 41.0301 81.4001 42.1651H81.2849C78.1767 42.1651 75.644 44.5486 75.4137 47.4996C73.4567 45.7971 70.4635 44.6621 67.125 44.6621C61.2538 44.6621 56.5338 47.9536 56.5338 52.0396C56.5338 54.877 58.8362 57.2605 62.0596 58.509L59.7572 64.7515C59.6421 65.092 59.8723 65.546 60.2177 65.6595C60.3328 65.6595 60.3328 65.6595 60.4479 65.6595C60.7933 65.6595 61.0235 65.4325 61.1386 65.2055L63.4411 58.963C64.5923 59.3035 65.8586 59.417 67.125 59.417C69.8879 59.417 72.4206 58.6225 74.2625 57.4875C74.3776 57.4875 74.6079 57.4875 74.723 57.374C74.9532 57.2605 75.0684 57.0335 75.0684 56.92C75.2986 56.693 75.5289 56.466 75.7591 56.239L72.6508 64.7515C72.5357 65.092 72.7659 65.546 73.1113 65.6595C73.2264 65.6595 73.2264 65.6595 73.3415 65.6595C73.6869 65.6595 73.9172 65.4325 74.0323 65.2055L78.4069 53.1745C79.2127 53.6285 80.2488 53.8555 81.1698 53.8555C82.6664 53.8555 84.163 53.288 85.1991 52.2666L87.7318 56.012C87.962 56.3525 88.4225 56.466 88.7678 56.239L92.5669 53.969L98.6683 65.319C98.7834 65.546 99.0137 65.6595 99.359 65.6595C99.4742 65.6595 99.5893 65.6595 99.7044 65.546C100.05 65.319 100.165 64.865 100.05 64.5245L93.603 52.4935C93.4878 52.2666 93.3727 52.153 93.1425 52.153C92.9122 52.153 92.682 52.1531 92.5669 52.2666L88.7678 54.5365L86.4654 51.0181C87.041 50.1101 87.3864 49.0886 87.3864 47.9536C87.3864 46.9321 87.1562 46.0241 86.6957 45.2296C87.041 45.2296 87.2713 45.3431 87.6166 45.3431C93.2576 45.3431 100.971 38.9871 101.316 38.7601C101.431 38.6466 101.546 38.4196 101.546 38.1926C101.546 37.9656 101.431 37.7386 101.316 37.6251C100.971 37.3981 95.0995 32.7446 90.0342 31.3826L92.2215 27.1831H104.309C104.77 27.1831 105 26.8426 105 26.5021C105 26.1617 104.54 25.8212 104.079 25.8212ZM76.2196 52.153C76.2196 53.515 75.5289 54.65 74.3776 55.6715L68.6216 46.2511C72.9962 46.8186 76.2196 49.2021 76.2196 52.153ZM57.9152 52.153C57.9152 48.9751 61.7143 46.3646 66.5494 46.2511L62.5201 57.374C59.7572 56.239 57.9152 54.3095 57.9152 52.153ZM63.9016 57.7145L67.7006 47.3861L73.2264 56.466C71.6147 57.4875 69.4274 58.055 67.0098 58.055C65.9738 58.055 64.8225 57.9415 63.9016 57.7145ZM81.2849 52.3801C78.8674 52.3801 76.7952 50.4506 76.7952 47.9536C76.7952 45.5701 78.7523 43.5271 81.2849 43.5271C83.8176 43.5271 85.7747 45.4566 85.7747 47.9536C85.6596 50.4506 83.7025 52.3801 81.2849 52.3801ZM87.3864 43.9811C84.163 43.9811 81.6303 41.3706 81.6303 38.3061C81.6303 35.2416 84.2781 32.6311 87.3864 32.6311C91.4156 32.6311 97.402 36.8306 99.4742 38.3061C97.402 39.7816 91.5308 43.9811 87.3864 43.9811ZM34.6607 46.4781L23.8392 40.1221C24.8753 39.5546 25.6812 38.6466 26.2568 37.5116L31.0919 38.3061H31.207C31.5524 38.3061 31.8977 38.0791 31.8977 37.7386L32.9338 32.9716L41.6831 26.1617C42.0285 25.9347 42.0285 25.4807 41.7982 25.1402C41.568 24.7997 41.1075 24.7997 40.7621 25.0267L31.7826 31.9501C31.6675 32.0636 31.5524 32.1771 31.5524 32.4041L30.6314 36.7171L26.7173 36.1496C26.8324 35.8091 26.8324 35.4686 26.8324 35.1281C26.8324 33.6526 26.2568 32.1771 25.2207 31.1556C26.3719 31.1556 27.6382 30.8151 28.6743 30.2476C33.5094 27.5236 37.0782 18.1032 37.1933 17.7627C37.3085 17.5357 37.1933 17.3087 37.1933 17.1952C37.0782 16.9682 36.848 16.8547 36.6177 16.8547C36.2724 16.7412 28.7895 15.6062 23.7241 16.9682L23.4939 12.4282L33.9699 10.1582C34.3153 10.0447 34.6607 9.70421 34.5455 9.25022C34.4304 8.90972 34.0851 8.56922 33.6246 8.68272L22.5729 11.0662C22.2275 11.1797 21.9973 11.4067 21.9973 11.8607L22.2275 17.4222C21.8822 17.5357 21.6519 17.6492 21.4217 17.8762C19.6948 18.7842 18.5436 20.3732 17.968 22.1892C17.5075 24.0052 17.7378 25.9347 18.6588 27.6371C19.0041 28.3181 19.5797 28.8856 20.1553 29.4531C17.2773 29.6801 14.9749 32.0636 14.9749 35.0146C14.9749 35.9226 15.2051 36.7171 15.5505 37.5116C12.5573 36.3766 8.41292 37.1711 4.84415 40.0086C0.239282 43.6406 -1.37242 49.2021 1.27538 52.3801C2.42659 53.8555 4.38366 54.5365 6.45585 54.5365C6.80122 54.5365 7.03146 54.5365 7.37683 54.5365L8.41292 65.2055C8.41292 65.546 8.75829 65.8865 9.10365 65.8865C9.10365 65.8865 9.10365 65.8865 9.21877 65.8865C9.67926 65.8865 9.9095 65.546 9.9095 65.092L8.87341 54.3095C10.7154 53.8555 12.6724 52.9475 14.3992 51.5856C18.4285 48.4076 20.1553 43.7541 18.7739 40.4626C19.4646 40.8031 20.2705 40.9166 21.0763 40.9166C21.5368 40.9166 21.8822 40.9166 22.3426 40.8031L33.6246 47.3861L25.6812 64.865C25.566 65.2055 25.6812 65.6595 26.0265 65.8865C26.1417 65.8865 26.2568 66 26.3719 66C26.6021 66 26.9475 65.8865 27.0626 65.546L35.3514 47.4996C35.1212 47.0456 35.006 46.5916 34.6607 46.4781ZM19.9251 26.7292C19.1192 25.3672 19.0041 23.8917 19.3495 22.4162C19.81 20.9407 20.7309 19.6922 22.1124 18.8977C23.9543 17.8762 26.8324 17.5357 29.5953 17.5357C32.0129 17.5357 34.3153 17.7627 35.4665 17.8762C34.4304 20.2597 31.5524 26.7291 27.8685 28.7721C26.487 29.5666 24.9904 29.6801 23.4939 29.3396C21.9973 29.1126 20.7309 28.0911 19.9251 26.7292ZM2.42659 51.4721C0.354404 48.8616 1.85099 44.3216 5.76512 41.1436C7.95243 39.4411 10.4851 38.5331 12.6724 38.5331C14.2841 38.5331 15.7807 39.1006 16.7017 40.2356C17.968 41.8246 17.8529 44.0946 16.8168 46.3646L7.49195 48.2941C7.14658 48.4076 6.91634 48.7481 6.91634 49.0886L7.2617 53.1745C5.18951 53.288 3.46269 52.7205 2.42659 51.4721ZM13.3632 50.4506C11.8666 51.5856 10.2549 52.3801 8.64316 52.834L8.2978 49.5426L15.6656 48.0671C15.09 48.8616 14.2841 49.6561 13.3632 50.4506ZM16.4714 35.0146C16.4714 32.6311 18.4285 30.5881 20.9612 30.5881C23.4939 30.5881 25.3358 32.6311 25.3358 35.0146C25.3358 37.3981 23.3787 39.4411 20.8461 39.4411C18.3134 39.4411 16.4714 37.5116 16.4714 35.0146Z" fill="white"/>
</svg>
