<svg width="125" height="20" viewBox="0 0 125 20" fill="none" xmlns="http://www.w3.org/2000/svg">
<path d="M3.30256 15H0.490057L5.6108 0.454545H8.86364L13.9915 15H11.179L7.29403 3.4375H7.1804L3.30256 15ZM3.39489 9.29688H11.0653V11.4134H3.39489V9.29688ZM28.3604 0.454545V15H26.0167L19.163 5.09233H19.0423V15H16.4073V0.454545H18.7653L25.6119 10.3693H25.7397V0.454545H28.3604ZM31.0923 2.66335V0.454545H42.6974V2.66335H38.2017V15H35.5881V2.66335H31.0923ZM53.3395 4.45312C53.2732 3.83286 52.9938 3.34991 52.5014 3.00426C52.0137 2.65862 51.3793 2.4858 50.598 2.4858C50.0488 2.4858 49.5777 2.56866 49.1847 2.73438C48.7917 2.90009 48.491 3.125 48.2827 3.40909C48.0743 3.69318 47.9678 4.01752 47.9631 4.3821C47.9631 4.68513 48.0317 4.94792 48.169 5.17045C48.3111 5.39299 48.5028 5.58239 48.7443 5.73864C48.9858 5.89015 49.2533 6.01799 49.5469 6.12216C49.8404 6.22633 50.1364 6.31392 50.4347 6.38494L51.7983 6.72585C52.3475 6.85369 52.8755 7.02651 53.3821 7.24432C53.8935 7.46212 54.3504 7.73674 54.7528 8.06818C55.16 8.39962 55.482 8.79972 55.7188 9.26847C55.9555 9.73722 56.0739 10.2865 56.0739 10.9162C56.0739 11.7685 55.8561 12.5189 55.4205 13.1676C54.9848 13.8116 54.3551 14.3158 53.5312 14.6804C52.7121 15.0402 51.7202 15.2202 50.5554 15.2202C49.4238 15.2202 48.4413 15.045 47.608 14.6946C46.7794 14.3442 46.1307 13.8329 45.6619 13.1605C45.1979 12.4882 44.947 11.669 44.9091 10.7031H47.5014C47.5393 11.2098 47.6955 11.6312 47.9702 11.9673C48.2448 12.3035 48.6023 12.5545 49.0426 12.7202C49.4877 12.8859 49.9848 12.9688 50.5341 12.9688C51.107 12.9688 51.6089 12.8835 52.0398 12.7131C52.4754 12.5379 52.8163 12.2964 53.0625 11.9886C53.3087 11.6761 53.4342 11.3116 53.4389 10.8949C53.4342 10.5161 53.3229 10.2036 53.1051 9.95739C52.8873 9.70644 52.5819 9.49811 52.1889 9.33239C51.8007 9.16193 51.3461 9.01042 50.8253 8.87784L49.1705 8.4517C47.9725 8.14394 47.0256 7.67756 46.3295 7.05256C45.6383 6.42282 45.2926 5.58712 45.2926 4.54545C45.2926 3.68845 45.5246 2.93797 45.9886 2.29403C46.4574 1.65009 47.0942 1.15057 47.8991 0.795454C48.7041 0.435605 49.6155 0.255681 50.6335 0.255681C51.6657 0.255681 52.5701 0.435605 53.3466 0.795454C54.1278 1.15057 54.741 1.64536 55.1861 2.27983C55.6312 2.90956 55.8608 3.634 55.875 4.45312H53.3395ZM64.2702 15V4.09091H66.7631V5.90909H66.8768C67.0756 5.27936 67.4165 4.79403 67.8995 4.45312C68.3872 4.10748 68.9435 3.93466 69.5685 3.93466C69.7106 3.93466 69.8692 3.94176 70.0444 3.95597C70.2243 3.96544 70.3735 3.98201 70.4918 4.00568V6.37074C70.3829 6.33286 70.2101 6.29972 69.9734 6.27131C69.7414 6.23816 69.5165 6.22159 69.2987 6.22159C68.8299 6.22159 68.4085 6.32339 68.0344 6.52699C67.6651 6.72585 67.3739 7.00284 67.1609 7.35795C66.9478 7.71307 66.8413 8.12263 66.8413 8.58665V15H64.2702ZM77.0803 15.2131C75.9865 15.2131 75.0419 14.9858 74.2464 14.5312C73.4557 14.072 72.8473 13.4233 72.4212 12.5852C71.995 11.7424 71.782 10.7505 71.782 9.60938C71.782 8.48722 71.995 7.50237 72.4212 6.65483C72.852 5.80256 73.4534 5.13968 74.2251 4.66619C74.9969 4.18797 75.9036 3.94886 76.9453 3.94886C77.6177 3.94886 78.2521 4.05777 78.8487 4.27557C79.45 4.48864 79.9804 4.82008 80.4396 5.26989C80.9036 5.7197 81.2682 6.29261 81.5334 6.98864C81.7985 7.67992 81.9311 8.50379 81.9311 9.46023V10.2486H72.9893V8.51562H79.4666C79.4619 8.0232 79.3554 7.58523 79.147 7.2017C78.9387 6.81345 78.6475 6.50805 78.2734 6.28551C77.9041 6.06297 77.4732 5.9517 76.9808 5.9517C76.4553 5.9517 75.9936 6.07955 75.5959 6.33523C75.1982 6.58617 74.888 6.91761 74.6655 7.32955C74.4477 7.73674 74.3364 8.18419 74.3317 8.67188V10.1847C74.3317 10.8191 74.4477 11.3636 74.6797 11.8182C74.9117 12.268 75.236 12.6136 75.6527 12.8551C76.0694 13.0919 76.5571 13.2102 77.1158 13.2102C77.4898 13.2102 77.8284 13.1581 78.1314 13.054C78.4344 12.9451 78.6972 12.7865 78.9197 12.5781C79.1423 12.3698 79.3104 12.1117 79.424 11.804L81.8246 12.0739C81.6731 12.7083 81.3842 13.2623 80.9581 13.7358C80.5367 14.2045 79.9969 14.5691 79.3388 14.8295C78.6806 15.0852 77.9278 15.2131 77.0803 15.2131ZM84.6062 19.0909V4.09091H87.1346V5.89489H87.2837C87.4163 5.62973 87.6033 5.34801 87.8448 5.04972C88.0863 4.74669 88.413 4.48864 88.8249 4.27557C89.2369 4.05777 89.7624 3.94886 90.4016 3.94886C91.2444 3.94886 92.0044 4.1643 92.6815 4.59517C93.3633 5.02131 93.9031 5.65341 94.3008 6.49148C94.7032 7.32481 94.9045 8.34754 94.9045 9.55966C94.9045 10.7576 94.708 11.7756 94.315 12.6136C93.922 13.4517 93.387 14.0909 92.7099 14.5312C92.0328 14.9716 91.2657 15.1918 90.4087 15.1918C89.7837 15.1918 89.2653 15.0876 88.8533 14.8793C88.4414 14.6709 88.11 14.42 87.859 14.1264C87.6128 13.8281 87.421 13.5464 87.2837 13.2812H87.1772V19.0909H84.6062ZM87.1275 9.54545C87.1275 10.2509 87.2269 10.8688 87.4258 11.3991C87.6294 11.9295 87.9206 12.3437 88.2994 12.642C88.6829 12.9356 89.1469 13.0824 89.6914 13.0824C90.2596 13.0824 90.7354 12.9309 91.119 12.6278C91.5025 12.3201 91.7913 11.901 91.9854 11.3707C92.1843 10.8357 92.2837 10.2273 92.2837 9.54545C92.2837 8.86837 92.1867 8.26705 91.9925 7.74148C91.7984 7.21591 91.5096 6.80398 91.1261 6.50568C90.7425 6.20739 90.2643 6.05824 89.6914 6.05824C89.1422 6.05824 88.6758 6.20265 88.2923 6.49148C87.9087 6.7803 87.6175 7.18513 87.4187 7.70597C87.2246 8.2268 87.1275 8.83996 87.1275 9.54545ZM102.365 15.2131C101.299 15.2131 100.376 14.9787 99.5948 14.5099C98.8136 14.0412 98.2075 13.3854 97.7766 12.5426C97.3505 11.6998 97.1374 10.715 97.1374 9.58807C97.1374 8.46117 97.3505 7.47396 97.7766 6.62642C98.2075 5.77888 98.8136 5.12074 99.5948 4.65199C100.376 4.18324 101.299 3.94886 102.365 3.94886C103.43 3.94886 104.353 4.18324 105.135 4.65199C105.916 5.12074 106.52 5.77888 106.946 6.62642C107.377 7.47396 107.592 8.46117 107.592 9.58807C107.592 10.715 107.377 11.6998 106.946 12.5426C106.52 13.3854 105.916 14.0412 105.135 14.5099C104.353 14.9787 103.43 15.2131 102.365 15.2131ZM102.379 13.1534C102.957 13.1534 103.44 12.9948 103.828 12.6776C104.216 12.3556 104.505 11.9247 104.694 11.3849C104.888 10.8452 104.985 10.2438 104.985 9.58097C104.985 8.91335 104.888 8.30966 104.694 7.76989C104.505 7.22538 104.216 6.79214 103.828 6.47017C103.44 6.1482 102.957 5.98722 102.379 5.98722C101.787 5.98722 101.295 6.1482 100.902 6.47017C100.513 6.79214 100.222 7.22538 100.028 7.76989C99.8387 8.30966 99.744 8.91335 99.744 9.58097C99.744 10.2438 99.8387 10.8452 100.028 11.3849C100.222 11.9247 100.513 12.3556 100.902 12.6776C101.295 12.9948 101.787 13.1534 102.379 13.1534ZM110.274 15V4.09091H112.767V5.90909H112.881C113.08 5.27936 113.42 4.79403 113.903 4.45312C114.391 4.10748 114.947 3.93466 115.572 3.93466C115.714 3.93466 115.873 3.94176 116.048 3.95597C116.228 3.96544 116.377 3.98201 116.496 4.00568V6.37074C116.387 6.33286 116.214 6.29972 115.977 6.27131C115.745 6.23816 115.52 6.22159 115.303 6.22159C114.834 6.22159 114.412 6.32339 114.038 6.52699C113.669 6.72585 113.378 7.00284 113.165 7.35795C112.952 7.71307 112.845 8.12263 112.845 8.58665V15H110.274ZM124.737 4.09091V6.07955H118.466V4.09091H124.737ZM120.014 1.47727H122.585V11.7188C122.585 12.0644 122.637 12.3295 122.741 12.5142C122.85 12.6941 122.992 12.8172 123.168 12.8835C123.343 12.9498 123.537 12.983 123.75 12.983C123.911 12.983 124.058 12.9711 124.19 12.9474C124.328 12.9238 124.432 12.9025 124.503 12.8835L124.936 14.8935C124.799 14.9408 124.602 14.9929 124.347 15.0497C124.096 15.1065 123.788 15.1397 123.423 15.1491C122.779 15.1681 122.199 15.071 121.683 14.858C121.167 14.6402 120.758 14.304 120.455 13.8494C120.156 13.3949 120.009 12.8267 120.014 12.1449V1.47727Z" fill="white"/>
</svg>
