<svg width="20" height="20" viewBox="0 0 20 20" fill="none" xmlns="http://www.w3.org/2000/svg">
<path d="M7.44613 6.03201L10.0001 8.58601L16.7281 1.85801C17.1032 1.48307 17.6118 1.27244 18.1421 1.27244C18.6725 1.27244 19.1811 1.48307 19.5561 1.85801L7.44613 13.968C7.94063 14.8067 8.11228 15.7969 7.9289 16.753C7.74553 17.7092 7.21972 18.5657 6.45004 19.1619C5.68037 19.7581 4.71967 20.0531 3.74802 19.9917C2.77637 19.9302 1.8605 19.5165 1.17207 18.8281C0.483636 18.1396 0.06992 17.2238 0.00846883 16.2521C-0.0529824 15.2805 0.24205 14.3198 0.838263 13.5501C1.43448 12.7804 2.29093 12.2546 3.2471 12.0712C4.20326 11.8879 5.19348 12.0595 6.03213 12.554L8.58613 10L6.03213 7.44601C5.19348 7.94051 4.20326 8.11215 3.2471 7.92878C2.29093 7.74541 1.43448 7.2196 0.838263 6.44992C0.24205 5.68025 -0.0529824 4.71954 0.00846883 3.7479C0.06992 2.77625 0.483636 1.86037 1.17207 1.17194C1.8605 0.483514 2.77637 0.0697979 3.74802 0.00834676C4.71967 -0.0531044 5.68037 0.241928 6.45004 0.838141C7.21972 1.43435 7.74553 2.29081 7.9289 3.24697C8.11228 4.20314 7.94063 5.19335 7.44613 6.03201ZM12.8261 11.412L19.5561 18.142C19.1811 18.517 18.6725 18.7276 18.1421 18.7276C17.6118 18.7276 17.1032 18.517 16.7281 18.142L11.4111 12.826L12.8261 11.411V11.412ZM5.41413 14.586C5.22964 14.395 5.00895 14.2426 4.76494 14.1378C4.52093 14.033 4.25849 13.9778 3.99294 13.9755C3.72738 13.9732 3.46402 14.0238 3.21823 14.1244C2.97243 14.2249 2.74913 14.3734 2.56134 14.5612C2.37356 14.749 2.22505 14.9723 2.12449 15.2181C2.02393 15.4639 1.97333 15.7273 1.97563 15.9928C1.97794 16.2584 2.03311 16.5208 2.13793 16.7648C2.24275 17.0088 2.39511 17.2295 2.58613 17.414C2.96334 17.7783 3.46854 17.9799 3.99294 17.9754C4.51733 17.9708 5.01895 17.7605 5.38977 17.3896C5.76059 17.0188 5.97092 16.5172 5.97548 15.9928C5.98004 15.4684 5.77845 14.9632 5.41413 14.586ZM5.41413 5.41401C5.60515 5.22952 5.75752 5.00883 5.86234 4.76482C5.96715 4.52081 6.02233 4.25837 6.02463 3.99281C6.02694 3.72726 5.97634 3.4639 5.87578 3.2181C5.77522 2.97231 5.62671 2.74901 5.43892 2.56122C5.25114 2.37344 5.02783 2.22493 4.78204 2.12437C4.53625 2.02381 4.27289 1.9732 4.00733 1.97551C3.74177 1.97782 3.47933 2.03299 3.23532 2.13781C2.99132 2.24263 2.77063 2.39499 2.58613 2.58601C2.22182 2.96322 2.02023 3.46842 2.02479 3.99281C2.02934 4.51721 2.23968 5.01883 2.6105 5.38965C2.98131 5.76046 3.48294 5.9708 4.00733 5.97536C4.53172 5.97992 5.03693 5.77833 5.41413 5.41401Z" fill="#718299"/>
</svg>
